# xmcd
#
# Track frame offsets:
#   150
#   12816
#   25453
#   38999
#   51020
#   60553
#   70784
#   81335
#   91127
#   102071
#   115051
#   129226
#   141863
#   150889
#   162456
#   175916
#   189936
#   201017
#   209851
#   222407
#   234536
#   249144
#
# Disc length: 3512 seconds
#
# Revision: 0
# Processed by: cddbd v1.4PL0 Copyright (c) Steve Scherf et al.
# Submitted via: uFREEDB 1.6.0
#
DISCID=260db616
DTITLE=Martin, Dean - Tracks 1951
DYEAR=1900
DGENRE=Vocal
TTITLE0=We Never Talk Much, We Just Sit Around (with Helen
TTITLE1=How D' Ya Like Your Eggs In The Morning (with Hele
TTITLE2=In The Cool, Cool, Cool Of The Evening
TTITLE3=Bonne Nuit
TTITLE4=Luna Mezzo Mare
TTITLE5=Pennies From Heaven
TTITLE6=Go Go Go Go
TTITLE7=Aw C'mon
TTITLE8=Hangin' Around With You
TTITLE9=Solitaire
TTITLE10=My Heart Has Found A New Home Now
TTITLE11=Bella Bimba
TTITLE12=The Sailor's Polka
TTITLE13=I Ran All The Way Home
TTITLE14=Meanderin'
TTITLE15=As You Are
TTITLE16=Blue Smoke (Kohu-Auwahi)
TTITLE17=Night Train To Memphis
TTITLE18=Until
TTITLE19=Oh Boy! Oh Boy! Oh Boy! Oh Boy! Oh Boy!
TTITLE20=Come Back To Sorrento (Torna A Surriento)
TTITLE21=Never Before
EXTD=
EXTT0=
EXTT1=
EXTT2=
EXTT3=
EXTT4=
EXTT5=
EXTT6=
EXTT7=
EXTT8=
EXTT9=
EXTT10=
EXTT11=
EXTT12=
EXTT13=
EXTT14=
EXTT15=
EXTT16=
EXTT17=
EXTT18=
EXTT19=
EXTT20=
EXTT21=
PLAYORDER=
